<svg width="67" height="77" viewBox="0 0 67 77" fill="none" xmlns="http://www.w3.org/2000/svg">
<path fill-rule="evenodd" clip-rule="evenodd" d="M3.91497 42.4141C3.88607 40.7487 5.81438 35.5548 6.61558 33.7788C7.63698 31.5144 9.41968 28.7899 11.0569 27.0094C11.6957 26.3146 14.1602 23.7436 15.0378 23.439C14.7627 24.3158 11.2254 27.7236 9.11828 35.0971C8.62028 36.8399 8.43197 39.5901 8.28517 40.0571C7.89547 40.2098 7.22788 40.1806 6.80028 40.304C5.26568 40.747 4.78597 41.5237 3.91497 42.4141ZM22.7832 35.9351C21.5569 33.9673 21.2052 29.7353 21.8316 27.0981C22.1691 25.6773 22.5438 24.5364 23.1536 23.2913C23.4736 22.6381 24.4963 20.6385 25.1453 20.1046C25.1295 21.0157 24.917 21.7239 24.9083 22.7366C24.8738 26.7359 26.5521 29.7396 29.2032 32.4978L32.0759 35.2115C31.8448 35.3137 27.9897 34.3901 27.1211 34.3172C26.1833 34.2384 25.3017 34.4243 24.59 34.7587C24.0719 35.0021 23.0559 35.8919 22.7832 35.9351ZM10.8284 39.5801C10.969 37.9124 12.054 34.4347 12.654 32.9428C14.3081 28.8295 16.0928 25.8269 19.1935 22.7631C20.1382 21.8296 22.7118 19.6309 23.8586 19.1447C23.7326 19.6055 21.0413 22.7009 19.6793 26.9397C19.1699 28.5252 18.8869 30.2827 18.8884 32.138C18.891 35.2022 19.5632 35.9878 19.6662 37.4296C17.5643 37.3802 16.4983 37.3392 14.634 37.8998C12.794 38.453 11.193 39.53 10.8284 39.5801ZM26.6368 22.5558C26.6325 19.2954 29.2543 16.8239 31.072 15.4773C32.7806 14.2116 35.5993 12.9756 37.6545 12.0274C37.9701 11.8818 38.3557 11.8173 38.5109 11.5391C36.8308 11.5157 35.1839 11.8204 33.5042 12.1455C28.697 13.0759 26.3119 13.932 21.9884 15.8747C18.5054 17.4397 15.5287 19.617 12.7327 22.0011C6.44127 27.3657 1.43048 37.0769 0.751176 45.7043C0.550076 48.2582 0.922075 52.3209 1.95767 54.5247C2.14797 51.3656 1.52238 48.2881 3.89918 45.3441C4.52568 44.5681 5.83477 43.2408 7.23018 43.1341C9.61747 42.9516 10.2141 44.7457 10.9804 45.0171C11.0364 43.7428 11.0798 43.1461 11.7184 42.3151C13.5341 39.952 18.0931 39.7715 19.2554 40.6354C19.0299 40.8914 18.3256 41.1895 18.0157 41.3697C18.1356 41.6689 19.742 42.8699 20.0977 43.1396C22.8379 45.2174 24.1804 45.0292 26.6886 46.1184C27.0135 46.2594 27.3153 46.5451 27.4077 46.8597C27.5348 47.293 27.1962 47.3407 26.8542 47.0564C26.7377 46.9595 26.5957 46.8076 26.474 46.7064C25.0548 45.5266 23.8066 46.3106 23.8944 47.4927C24.5149 47.5101 25.7585 46.6473 26.1864 48.0206C25.1908 48.0673 24.1629 47.8991 23.719 48.6221C23.2569 49.3747 23.844 50.2953 24.4071 50.4841C24.4192 50.0671 24.355 49.4939 24.7191 49.3421C25.3585 48.7874 26.7363 50.2295 27.5743 49.8125C27.9567 49.1115 27.7957 48.5349 28.9239 48.514C29.5199 48.503 30.8965 48.425 31.3052 48.7712C31.181 49.1202 30.973 49.1244 30.5433 49.2961C29.8521 49.5723 29.9494 49.5128 29.8048 49.7855C32.423 50.5925 32.4566 50.0827 33.9957 50.2064L34.3725 50.308C34.3137 50.6721 34.1512 50.5848 33.737 50.6895C33.4893 50.7519 33.259 50.8112 32.9468 50.8825C32.4745 50.9904 31.8312 51.0645 31.4628 51.3023C32.1249 51.9105 34.3139 51.7226 35.2374 51.466C36.4041 51.142 37.146 50.6612 38.1409 50.1203C42.3258 47.8451 48.3546 47.5992 52.0679 50.7649C53.718 52.1717 55.3446 54.4312 53.5948 57.1704C52.3203 59.1656 50.624 60.4251 47.9439 60.9977C46.5098 61.304 44.9523 61.1247 43.6294 61.4165C42.5621 61.6519 41.1161 62.424 40.8993 63.4729C41.655 63.4047 42.2468 63.114 43.1232 63.0534C46.368 62.8289 49.0819 63.4138 52.5029 61.3185C54.0735 60.3566 55.6452 58.606 56.387 56.5026C56.8315 55.2424 57.1469 54.5532 57.077 52.8367C56.9436 49.5603 53.7932 47.189 51.0237 45.9351C43.199 42.3925 35.5578 43.7014 29.931 41.0892C28.8422 40.5837 28.0487 40.1517 27.1783 39.4911C26.7523 39.1678 25.0159 37.7443 25.3383 37.1099C25.9166 36.5282 27.2511 36.3137 28.2975 36.312C32.0845 36.3056 36.1256 38.3636 39.2356 40.001C39.7465 40.2699 40.3289 40.6121 40.7979 40.8762C41.2765 41.1458 41.8599 41.6306 42.425 41.6628C42.2619 41.303 41.5759 40.6679 41.2512 40.3374C40.6409 39.7162 40.2067 39.4108 40.1871 38.8807C46.5894 38.7273 52.7971 39.2236 56.4119 44.5258C58.1485 47.0731 57.8243 47.1452 58.6711 49.4418C58.9009 48.9298 58.2616 47.0313 58.0647 46.5694C56.9613 43.9811 55.3837 42.1434 53.1066 40.418C49.1609 37.4281 42.9562 35.023 37.9883 33.3679L32.6017 31.3662C29.5794 29.9521 26.6415 26.0301 26.6368 22.5558Z" fill="#B20A09"/>
<path fill-rule="evenodd" clip-rule="evenodd" d="M19.7523 2.91337C19.2521 2.97447 18.1109 3.73157 17.6221 4.01567C13.7779 6.25007 13.9099 5.04927 15.1662 9.38257C15.3982 10.1826 15.8364 11.2356 15.2839 11.8858C14.8061 12.4481 14.2397 12.9141 13.7403 13.4237C11.567 15.6422 11.9811 15.5556 9.84211 14.8839C9.05811 14.6377 8.21831 14.4153 7.38711 14.1792C5.96571 13.7757 6.00391 14.2513 5.44681 15.1635C2.68371 19.6874 2.81091 18.9885 3.79011 19.9434L6.12311 22.224C7.90651 23.8572 6.38791 24.3277 6.19821 26.9288C6.58351 26.7307 6.66271 26.4589 7.05781 25.9968C15.1623 16.5168 24.4685 11.6897 37.2085 10.2963C38.4671 10.1586 42.5217 9.84367 43.5559 10.2618C43.4485 10.4797 40.417 12.0909 39.8412 12.401C39.357 12.6618 38.8458 12.8679 38.68 13.1722L47.281 16.7568C47.5915 16.4246 47.7052 15.7093 48.0042 15.3366C48.2769 15.6183 48.8471 16.672 49.206 17.1079C51.332 19.6903 53.8332 20.115 54.4867 20.6839C54.9552 21.0917 55.4531 21.857 56.0691 22.0897C56.9111 22.4079 57.3693 22.6285 57.8516 23.1973C58.6717 24.1645 59.4495 25.8014 59.6025 27.3804C58.1079 27.4239 56.5437 27.1677 55.5516 28.2046C55.1477 28.6267 55.0449 29.2241 54.6621 29.7585C53.6094 31.2276 54.2118 33.2788 53.9423 36.2036C53.7861 37.8988 53.2883 38.6848 54.5168 39.9081C54.9223 40.3119 55.3623 40.6078 55.8237 41.0414C57.1302 42.2692 58.1195 43.3596 59.0077 44.9981C61.3436 49.3069 59.8417 52.2316 60.3887 53.0399C60.7572 52.9726 60.655 52.9221 60.8883 52.5243L63.3282 48.3579C63.6717 47.7665 63.6278 47.5998 63.1481 47.0967C59.2937 43.0544 59.4252 44.4846 60.2403 41.5735C61.3558 37.5901 60.5248 38.4085 63.7226 37.5685L66.5546 36.8587C66.9649 36.6668 66.7461 33.9234 66.7463 33.3132C66.7468 31.7728 66.9943 30.7817 66.1544 30.4419C65.3761 30.1272 64.2471 29.9491 63.373 29.6851C60.5922 28.845 61.513 29.8712 60.3581 25.7559C60.0746 24.7454 59.5862 23.9037 60.3443 23.1432L63.9316 19.7772C63.7997 19.1712 61.4449 15.4405 60.9273 14.3221C60.3048 14.3208 57.3371 15.2104 56.6166 15.4361C55.0478 15.9274 55.3509 15.7634 53.4075 13.8076C51.4247 11.8121 51.2322 11.9923 51.7502 10.4791C52.0499 9.60367 52.8692 7.04997 52.7801 6.18757C52.6934 6.01257 48.1045 3.31337 47.6426 3.11677C47.3493 3.24457 44.9856 5.74217 44.5039 6.21837C43.7828 6.93107 43.636 7.16877 42.396 6.83007C41.5964 6.61167 40.7895 6.40287 39.9996 6.17057C39.0561 5.89317 38.28 5.88587 37.9979 4.99857C36.2508 -0.496829 38.1843 0.0999688 33.7213 0.0517688C33.0549 0.0445688 31.0852 -0.113829 30.6737 0.161871C30.3022 0.410671 30.0643 1.80287 29.9089 2.45127C29.0375 6.08477 29.3153 5.52487 27.3077 6.00127C22.9568 7.03357 24.2562 7.67997 21.2417 4.48137C20.8968 4.11557 20.0244 3.34307 19.7523 2.91337Z" fill="#2A2A2A"/>
<path fill-rule="evenodd" clip-rule="evenodd" d="M12.3745 45.3361C12.2008 45.4661 10.7288 46.2165 10.5678 46.2371C9.73879 46.3428 9.51899 45.4961 9.06799 45.0405C6.71889 42.6672 3.25189 47.7511 3.92819 49.0885C4.22949 49.6843 4.60619 50.2675 4.91909 50.8204C6.19599 53.076 5.13329 52.7618 10.2986 51.4572C11.7798 51.083 11.7308 51.3966 13.5146 53.2476C15.1791 54.9747 15.5587 54.7108 15.0078 56.5644C14.7708 57.362 13.8306 60.1489 13.862 60.7013L19.1673 63.7823C19.5049 63.5866 20.5893 62.4119 20.9555 62.0399C23.5692 59.3843 22.7819 59.638 25.3903 60.3682C26.0206 60.5446 27.5962 60.8595 28.095 61.08C28.9386 61.4528 29.0096 62.5639 29.2111 63.5023C30.0637 67.4697 29.8879 66.8389 32.8173 66.8486C33.8965 66.8522 35.1975 66.9151 36.2512 66.8322C36.4326 66.1229 36.648 65.4193 36.8615 64.6489C37.7906 61.2951 36.9335 61.364 41.0018 60.4749C42.8357 60.0741 43.9838 59.892 46.019 59.874C47.8671 59.8577 51.7222 58.6833 51.4997 57.1086C51.3888 56.3241 50.7624 55.6774 51.4944 54.972C52.5764 53.929 53.4783 53.7355 51.3254 51.8691C50.3026 50.9825 49.049 50.3883 47.6014 50.0076C46.5199 49.7233 46.2585 49.8321 45.4656 50.3935C39.7679 54.4276 32.9837 55.4329 25.8312 52.8693C21.9254 51.4695 18.8148 48.7573 16.4773 45.4993C15.6586 44.3584 14.6995 42.498 14.3762 42.0787C13.7454 42.1685 13.0666 42.6531 12.7732 43.0949C12.3004 43.8069 12.4346 44.37 12.3745 45.3361Z" fill="#2A2A2A"/>
<path fill-rule="evenodd" clip-rule="evenodd" d="M51.5203 21.5366C51.926 21.6086 53.1961 22.1486 53.378 22.5602C52.3447 22.6041 51.8436 22.2214 51.5203 21.5366ZM44.6539 18.7851C42.6976 17.8869 42.9324 16.3565 39.1421 16.4152C38.8043 16.4204 38.3961 16.4026 38.0966 16.6036L38.6167 17.3194C37.5219 17.3135 36.4966 17.1509 35.2602 17.2475C34.6551 17.2949 32.7627 17.512 32.3875 17.7818L34.0504 18.3975C33.3179 19.1661 31.9883 19.1279 30.8076 19.3652C30.2058 19.4861 29.6338 19.6433 29.0379 19.7754C28.4452 19.9067 27.8893 19.9043 27.7757 20.5787C27.5779 21.7527 27.5923 23.4072 27.8562 24.5348C28.2002 26.0042 28.5978 26.3395 29.157 27.3804C29.8275 27.2536 29.6967 26.8663 30.3766 26.8955C30.523 26.9542 30.7308 27.4177 31.0094 27.6521C31.3283 27.5022 31.5416 27.2203 31.8654 26.9382C32.7735 26.147 33.3872 25.6906 34.422 25.0617C37.9119 22.9411 43.0078 22.9048 46.624 24.3924C46.9793 24.5386 48.3991 25.0389 48.5101 25.4486C48.2274 25.5599 48.0284 25.612 47.7447 25.7178C47.5891 25.7759 47.4855 25.8015 47.3495 25.8573C47.2266 25.9078 47.2385 25.901 47.1552 25.9492C47.0218 26.0265 47.0572 26.0091 46.9862 26.0814C47.4394 26.5848 49.3907 26.6811 50.1995 26.9667C52.3895 27.7402 51.397 28.7148 51.3809 29.3092C52.0308 29.4032 52.7289 29.3842 53.2439 29.1552C53.6269 28.9849 54.1288 28.6149 54.2249 28.1605C53.8504 27.9627 53.4059 27.9573 53.0367 27.7329C52.552 27.4381 52.6363 27.1707 52.3455 26.8046C51.9298 26.2814 51.9261 26.6104 51.802 25.7372C51.7463 25.3457 51.652 24.7601 51.7594 24.3247C52.2542 24.2955 52.7391 24.6958 53.2653 24.8783C54.0713 25.158 53.8474 26.0602 54.3566 26.1507L54.6214 26.1735C55.4092 26.2661 54.6857 26.3076 56.0505 26.2602C56.7223 26.2368 57.3558 26.2068 58.0371 26.1605C58.0134 25.8079 57.5075 25.0426 57.3129 24.728C57.0492 24.3019 56.7105 23.9334 56.2897 23.6661C55.8091 23.3609 55.281 23.2783 54.7849 23.0053C54.0558 22.6041 54.1649 22.5996 53.9058 21.823C53.5766 20.8363 52.2049 20.6881 51.1672 20.2863C49.5181 19.6477 49.0767 18.9133 48.3794 18.7156L48.8135 19.8672C47.8918 19.6143 46.7382 17.399 44.9039 17.3705C44.9666 17.8681 45.4387 18.742 44.9901 18.8279C44.8166 18.8611 45.0875 18.9841 44.6539 18.7851Z" fill="#B20A09"/>
<path fill-rule="evenodd" clip-rule="evenodd" d="M46.0096 70.3039C45.8166 68.8928 45.4164 68.1755 46.3903 67.044C47.8658 65.3296 51.153 65.7597 51.5147 68.0357C52.2333 72.5577 43.1148 72.6047 42.362 67.4467C42.1845 66.2301 42.7089 65.0609 42.8112 63.9951C42.0298 64.0817 40.5294 65.8123 40.1244 66.4722C39.565 67.3837 39.28 68.472 39.4542 69.618C39.5011 69.927 39.5752 70.3292 39.778 70.5704L40.1396 70.1871C41.0759 70.958 40.751 71.2654 42.9284 72.2037L43.3228 72.4775L41.8494 72.4692C42.8288 73.7603 49.9901 73.5432 51.8892 70.6436C52.3763 69.8998 52.5802 68.9507 52.6137 68.0226C52.6299 67.5745 52.6081 67.5995 52.7784 67.3662C53.2255 66.7537 52.685 67.7407 52.9072 67.2124C52.0945 65.507 50.5014 65.3814 49.3765 65.0186C49.5709 64.7008 49.7846 64.877 50.0109 64.4768C48.4988 64.4459 46.5295 65.4248 45.7933 66.2662C44.6067 67.6224 44.5416 70.054 46.0096 70.3039Z" fill="#B20A09"/>
<path fill-rule="evenodd" clip-rule="evenodd" d="M0.0370947 36.2059C0.265995 36.3829 0.964099 36.6475 1.2838 36.4863C1.505 36.3748 1.76939 35.7245 1.88729 35.471C2.27429 34.6388 2.5606 33.9922 2.9527 33.1929L5.1962 28.847C4.897 28.83 3.1218 29.2869 2.6776 29.3989C-0.473802 30.1935 0.0592963 29.7503 0.0286963 33.042C0.0194963 34.0376 -0.0357053 35.2303 0.0370947 36.2059Z" fill="#2A2A2A"/>
<path fill-rule="evenodd" clip-rule="evenodd" d="M52.2529 42.4388C52.0422 42.6368 51.1558 44.1849 51.109 44.5001C52.2039 45.0409 53.0319 45.3816 54.1291 46.0868C55.3305 46.8589 56.4135 48.0318 56.717 48.1908C56.3721 46.2408 53.6829 42.9415 52.2529 42.4388Z" fill="#2A2A2A"/>
<path fill-rule="evenodd" clip-rule="evenodd" d="M51.1449 75.2731C47.9718 74.5886 48.6218 73.4931 46.6983 73.8746C46.8433 74.1856 46.64 73.9527 46.8752 74.2185C47.0636 74.4315 48.2798 75.084 48.5206 75.2011C49.106 75.4855 50.0187 75.8124 50.8068 75.9094C53.9142 76.2919 54.7872 75.9168 56.6748 76.0718C56.5482 76.3553 56.5614 76.1974 56.4514 76.5496C56.6235 76.5284 59.3025 75.7604 59.37 75.5489C59.3814 75.5134 59.4124 75.5146 59.4319 75.4957C58.8669 75.2907 57.4531 74.8089 56.7935 74.7505L56.9277 75.4981C55.1411 75.5782 52.8146 75.6334 51.1449 75.2731Z" fill="#B20A09"/>
</svg>
